# File created by Blade
# Date/Time:  Tue Jan 27 17:21:46 2015
#---------------------------------------------------------
:version 1.10
:name HOM
:units
  mass 1.0
  length 1.000000
  angle deg
:documentation
     Acclaim Skeleton File
:root
   axis xyz
   order TX TY TZ RX RY RZ
   position 0.000000 0.000000 0.000000
   orientation 0 0 0
:bonedata
   begin
      id 1
      name Spine_dum
      direction 0.000000 1.000000 0.000000
      length 7.539951
      axis 0.0 0.0 0.0 xyz
   end
   begin
      id 2
      name LeftUpLeg_dum
      direction 1.000000 0.000000 0.000000
      length 3.345476
      axis 0.0 0.0 0.0 xyz
   end
   begin
      id 3
      name RightUpLeg_dum
      direction -1.000000 0.000000 0.000000
      length 3.345476
      axis 0.0 0.0 0.0 xyz
   end
   begin
      id 4
      name Spine
      direction 0.000000 1.000000 0.000000
      length 0.000000
      axis 0.0 0.0 0.0 xyz
      dof rx ry rz
   end
   begin
      id 5
      name Spine_dum1
      direction 0.000000 1.000000 0.000000
      length 15.093809
      axis 0.0 0.0 0.0 xyz
   end
   begin
      id 6
      name Spine_dum2
      direction 0.000000 1.000000 0.000000
      length 9.738928
      axis 0.0 0.0 0.0 xyz
   end
   begin
      id 7
      name Spine_dum3
      direction 0.000000 1.000000 0.000000
      length 9.738928
      axis 0.0 0.0 0.0 xyz
   end
   begin
      id 8
      name Head
      direction 0.000000 1.000000 0.000000
      length 4.527550
      axis 0.0 0.0 0.0 xyz
      dof rx ry rz
   end
   begin
      id 9
      name LeftShoulder
      direction 1.000000 0.000000 0.000000
      length 7.084015
      axis 0.0 0.0 -90.0 xyz
      dof rx ry rz
   end
   begin
      id 10
      name LeftArm
      direction 1.000000 0.000000 0.000000
      length 10.259319
      axis 0.0 0.0 -90.0 xyz
      dof rx ry rz
   end
   begin
      id 11
      name LeftForeArm
      direction 1.000000 0.000000 0.000000
      length 9.896984
      axis 0.0 0.0 -90.0 xyz
      dof ry rz rx
   end
   begin
      id 12
      name LeftHand
      direction 0.000000 0.000000 0.000000
      length 0.000000
      axis 0.0 0.0 -90.0 xyz
      dof rx ry rz
   end
   begin
      id 13
      name LeftHand_dum1
      direction 0.000000 0.000000 0.000000
      length 0.000000
      axis 0.0 0.0 -90.0 xyz
   end
   begin
      id 14
      name LeftHand_dum2
      direction 1.000000 0.000000 0.000000
      length 3.937000
      axis 0.0 0.0 -90.0 xyz
   end
   begin
      id 15
      name LeftHandThumb1
      direction 0.000000 0.000000 1.000000
      length 3.937000
      axis 0.0 0.0 -90.0 xyz
      dof rx rz ry
   end
   begin
      id 16
      name RightShoulder
      direction -1.000000 0.000000 0.000000
      length 7.084015
      axis 0.0 0.0 90.0 xyz
      dof rx ry rz
   end
   begin
      id 17
      name RightArm
      direction -1.000000 0.000000 0.000000
      length 10.259319
      axis 0.0 0.0 90.0 xyz
      dof rx ry rz
   end
   begin
      id 18
      name RightForeArm
      direction -1.000000 0.000000 0.000000
      length 9.896984
      axis 0.0 0.0 90.0 xyz
      dof ry rz rx
   end
   begin
      id 19
      name RightHand
      direction 0.000000 0.000000 0.000000
      length 0.000000
      axis 0.0 0.0 90.0 xyz
      dof rx ry rz
   end
   begin
      id 20
      name RightHand_dum1
      direction 0.000000 0.000000 0.000000
      length 0.000000
      axis 0.0 0.0 90.0 xyz
   end
   begin
      id 21
      name RightHand_dum2
      direction -1.000000 0.000000 0.000000
      length 3.937000
      axis 0.0 0.0 90.0 xyz
   end
   begin
      id 22
      name RightHandThumb1
      direction 0.000000 0.000000 1.000000
      length 3.937000
      axis 0.0 0.0 90.0 xyz
      dof rx rz ry
   end
   begin
      id 23
      name LeftUpLeg
      direction 0.000000 -1.000000 0.000000
      length 19.114733
      axis 0.0 0.0 0.0 xyz
      dof rx ry rz
   end
   begin
      id 24
      name LeftLeg
      direction 0.000000 -1.000000 0.000000
      length 16.045604
      axis 0.0 0.0 0.0 xyz
      dof rx ry rz
   end
   begin
      id 25
      name LeftFoot
      direction 0.000000 -0.258819 0.965926
      length 5.543155
      axis 15.0 0.0 0.0 xyz
      dof rx ry rz
   end
   begin
      id 26
      name LeftToeBase
      direction 0.000000 0.000000 1.000000
      length 2.952750
      axis 0.0 0.0 0.0 xyz
      dof rx ry rz
   end
   begin
      id 27
      name RightUpLeg
      direction 0.000000 -1.000000 0.000000
      length 19.114733
      axis 0.0 0.0 0.0 xyz
      dof rx ry rz
   end
   begin
      id 28
      name RightLeg
      direction 0.000000 -1.000000 0.000000
      length 16.045604
      axis 0.0 0.0 0.0 xyz
      dof rx ry rz
   end
   begin
      id 29
      name RightFoot
      direction 0.000000 -0.258819 0.965926
      length 5.543155
      axis 15.0 0.0 0.0 xyz
      dof rx ry rz
   end
   begin
      id 30
      name RightToeBase
      direction 0.000000 0.000000 1.000000
      length 2.952750
      axis 0.0 0.0 0.0 xyz
      dof rx ry rz
   end
:hierarchy
   begin
      root Spine_dum LeftUpLeg_dum RightUpLeg_dum
      Spine_dum Spine
      LeftUpLeg_dum LeftUpLeg
      RightUpLeg_dum RightUpLeg
      Spine Spine_dum1 Spine_dum2 Spine_dum3
      Spine_dum1 Head
      Spine_dum2 LeftShoulder
      Spine_dum3 RightShoulder
      LeftShoulder LeftArm
      LeftArm LeftForeArm
      LeftForeArm LeftHand
      LeftHand LeftHand_dum1 LeftHand_dum2
      LeftHand_dum1 LeftHandThumb1
      RightShoulder RightArm
      RightArm RightForeArm
      RightForeArm RightHand
      RightHand RightHand_dum1 RightHand_dum2
      RightHand_dum1 RightHandThumb1
      LeftUpLeg LeftLeg
      LeftLeg LeftFoot
      LeftFoot LeftToeBase
      RightUpLeg RightLeg
      RightLeg RightFoot
      RightFoot RightToeBase
   end

# File created by Blade
# Date/Time:  Tue Jan 27 17:21:37 2015
# Frame Rate: 120.000 fps
#------------------------------------------------------
:FULLY-SPECIFIED
:DEGREES
1871
root -3.003554 36.314738 0.835481 3.856832 24.594138 1.109964
Spine 3.013859 2.371280 1.627594
Head 3.618539 -4.418808 -0.615655
LeftShoulder -1.511974 -14.007857 8.244069
LeftArm 3.797805 -20.904399 -42.975530
LeftForeArm 1.524481 0.000000 68.682874
LeftHand -16.484041 0.000000 43.795081
LeftHandThumb1 -26.253704 0.000000 33.147579
RightShoulder -6.104618 -18.244621 1.161112
RightArm 14.921575 -21.085398 51.964766
RightForeArm 178.222645 -0.000000 34.533853
RightHand 0.041521 -0.000000 -1.099073
RightHandThumb1 -24.326973 -0.000000 -32.862282
LeftUpLeg -52.797435 31.861828 2.585518
LeftLeg 96.322928 -0.000000 -0.000000
LeftFoot -7.501352 3.405170 -28.669351
LeftToeBase 14.399991 -0.000000 -0.000000
RightUpLeg -10.529159 -15.739394 9.477697
RightLeg 19.789558 -0.000000 -0.000000
RightFoot -19.690184 -10.418973 -2.303127
RightToeBase 2.796445 -0.000000 -0.000000
1872
root -2.994968 36.315562 0.833112 3.777822 24.559377 1.129428
Spine 3.134707 2.395606 1.669641
Head 3.590150 -4.388804 -0.661052
LeftShoulder -1.536952 -14.007449 8.184615
LeftArm 3.737773 -20.915913 -42.895949
LeftForeArm 1.381078 -0.000000 68.687728
LeftHand -16.559889 0.000000 44.100266
LeftHandThumb1 -26.253704 0.000000 33.147579
RightShoulder -6.096768 -18.249094 1.151794
RightArm 14.947039 -21.037449 51.905844
RightForeArm 178.211270 0.000000 34.513281
RightHand 0.091471 -0.000000 -0.997717
RightHandThumb1 -24.326973 -0.000000 -32.862282
LeftUpLeg -52.738254 31.836667 2.634753
LeftLeg 96.348486 -0.000000 -0.000000
LeftFoot -7.488782 3.419679 -28.711285
LeftToeBase 14.276928 -0.000000 -0.000000
RightUpLeg -10.442442 -15.723354 9.421503
RightLeg 19.805014 -0.000000 -0.000000
RightFoot -19.700995 -10.446618 -2.307790
RightToeBase 2.796577 -0.000000 -0.000000
1873
root -2.986265 36.316164 0.831346 3.692078 24.534872 1.138000
Spine 3.250210 2.406057 1.729450
Head 3.585079 -4.333039 -0.688256
LeftShoulder -1.573348 -13.996812 8.131690
LeftArm 3.675621 -20.927755 -42.842363
LeftForeArm 1.331625 -0.000000 68.688410
LeftHand -16.436159 0.000000 44.023939
LeftHandThumb1 -26.253704 0.000000 33.147579
RightShoulder -6.079491 -18.223159 1.120282
RightArm 14.946646 -21.006962 51.872300
RightForeArm 178.210077 0.000000 34.477599
RightHand 0.138533 0.000000 -0.933785
RightHandThumb1 -24.326973 -0.000000 -32.862282
LeftUpLeg -52.671563 31.814953 2.694147
LeftLeg 96.375455 -0.000000 -0.000000
LeftFoot -7.512832 3.424448 -28.732887
LeftToeBase 14.336350 -0.000000 -0.000000
RightUpLeg -10.350437 -15.695341 9.373671
RightLeg 19.811691 -0.000000 -0.000000
RightFoot -19.708407 -10.462655 -2.306239
RightToeBase 2.855041 -0.000000 -0.000000
1874
root -2.977510 36.316786 0.828852 3.620585 24.492351 1.147610
Spine 3.349222 2.446732 1.787273
Head 3.566265 -4.322998 -0.751305
LeftShoulder -1.596173 -13.979817 8.083532
LeftArm 3.605347 -20.982875 -42.809176
LeftForeArm 1.199124 0.000000 68.680604
LeftHand -16.352018 -0.000000 43.929336
LeftHandThumb1 -26.253704 0.000000 33.147579
RightShoulder -6.080334 -18.205776 1.094237
RightArm 14.945322 -20.965247 51.845377
RightForeArm 178.164988 0.000000 34.448908
RightHand 0.126817 -0.000000 -0.970940
RightHandThumb1 -24.326973 -0.000000 -32.862282
LeftUpLeg -52.613332 31.815918 2.742443
LeftLeg 96.394682 -0.000000 -0.000000
LeftFoot -7.566657 3.418265 -28.739563
LeftToeBase 14.399194 -0.000000 -0.000000
RightUpLeg -10.276661 -15.643136 9.330430
RightLeg 19.827117 -0.000000 -0.000000
RightFoot -19.706521 -10.511158 -2.305084
RightToeBase 2.844509 -0.000000 -0.000000
1875
root -2.969121 36.317238 0.823787 3.598481 24.463550 1.161671
Spine 3.381615 2.456350 1.837016
Head 3.569336 -4.269944 -0.781293
LeftShoulder -1.639086 -13.941066 8.030483
LeftArm 3.570472 -20.987566 -42.761259
LeftForeArm 1.091700 -0.000000 68.698192
LeftHand -16.452538 0.000000 43.933160
LeftHandThumb1 -26.253704 0.000000 33.147579
RightShoulder -6.065805 -18.185094 1.065548
RightArm 14.922961 -20.937823 51.820015
RightForeArm 178.180613 -0.000000 34.426287
RightHand 0.172071 0.000000 -0.939703
RightHandThumb1 -24.326973 -0.000000 -32.862282
LeftUpLeg -52.607571 31.804123 2.755076
LeftLeg 96.414713 -0.000000 -0.000000
LeftFoot -7.637412 3.402607 -28.748194
LeftToeBase 14.370803 -0.000000 -0.000000
RightUpLeg -10.262127 -15.612264 9.299137
RightLeg 19.848150 -0.000000 -0.000000
RightFoot -19.695663 -10.564864 -2.344058
RightToeBase 2.826349 -0.000000 -0.000000
1876
root -2.960661 36.317119 0.817407 3.589184 24.440962 1.180408
Spine 3.403658 2.465470 1.880410
Head 3.574596 -4.231916 -0.791090
LeftShoulder -1.672647 -13.914326 7.992888
LeftArm 3.502646 -21.000180 -42.726865
LeftForeArm 1.062821 -0.000000 68.724458
LeftHand -16.416018 -0.000000 43.884457
LeftHandThumb1 -26.253704 0.000000 33.147579
RightShoulder -6.068696 -18.173503 1.036585
RightArm 14.919205 -20.887493 51.807381
RightForeArm 178.139998 -0.000000 34.391325
RightHand 0.153291 -0.000000 -0.947006
RightHandThumb1 -24.326973 -0.000000 -32.862282
LeftUpLeg -52.603785 31.787670 2.758851
LeftLeg 96.437219 -0.000000 -0.000000
LeftFoot -7.713292 3.352425 -28.732058
LeftToeBase 14.293305 -0.000000 -0.000000
RightUpLeg -10.282691 -15.552992 9.270142
RightLeg 19.916423 -0.000000 -0.000000
RightFoot -19.711630 -10.647830 -2.340789
RightToeBase 2.854147 -0.000000 -0.000000
1877
root -2.952019 36.317228 0.811623 3.585361 24.411182 1.202847
Spine 3.419324 2.480077 1.914581
Head 3.565429 -4.218955 -0.797977
LeftShoulder -1.717363 -13.889224 7.956723
LeftArm 3.428695 -21.019031 -42.695477
LeftForeArm 0.966912 0.000000 68.750039
LeftHand -16.324742 -0.000000 43.724804
LeftHandThumb1 -26.253704 0.000000 33.147579
RightShoulder -6.079042 -18.164810 1.015498
RightArm 14.915506 -20.853175 51.787129
RightForeArm 178.103985 -0.000000 34.365860
RightHand 0.106890 -0.000000 -0.972712
RightHandThumb1 -24.326973 -0.000000 -32.862282
LeftUpLeg -52.583338 31.766240 2.769690
LeftLeg 96.478165 -0.000000 -0.000000
LeftFoot -7.797189 3.235239 -28.696658
LeftToeBase 14.248464 -0.000000 -0.000000
RightUpLeg -10.299845 -15.558464 9.238292
RightLeg 19.965582 -0.000000 -0.000000
RightFoot -19.704711 -10.660765 -2.391287
RightToeBase 2.778017 -0.000000 -0.000000
1878
root -2.942531 36.316894 0.805710 3.580365 24.372310 1.233057
Spine 3.434740 2.508234 1.938973
Head 3.577673 -4.196633 -0.790103
LeftShoulder -1.760267 -13.840290 7.912483
LeftArm 3.424307 -21.012394 -42.663654
LeftForeArm 0.891342 -0.000000 68.747311
LeftHand -16.336273 -0.000000 43.699279
LeftHandThumb1 -26.253704 0.000000 33.147579
RightShoulder -6.083791 -18.155296 0.998699
RightArm 14.887740 -20.798656 51.778716
RightForeArm 178.099694 -0.000000 34.352445
RightHand 0.113452 -0.000000 -0.909583
RightHandThumb1 -24.326973 -0.000000 -32.862282
LeftUpLeg -52.530867 31.741030 2.791457
LeftLeg 96.540506 -0.000000 -0.000000
LeftFoot -7.894211 3.045587 -28.693524
LeftToeBase 14.164299 -0.000000 -0.000000
RightUpLeg -10.313929 -15.561706 9.196719
RightLeg 20.019897 -0.000000 -0.000000
RightFoot -19.713527 -10.676156 -2.429059
RightToeBase 2.760693 -0.000000 -0.000000
1879
root -2.932487 36.316916 0.799777 3.585817 24.334577 1.266875
Spine 3.438848 2.541889 1.950186
Head 3.571617 -4.186438 -0.744229
LeftShoulder -1.804315 -13.807011 7.870348
LeftArm 3.431350 -20.973346 -42.621492
LeftForeArm 0.878362 -0.000000 68.756829
LeftHand -16.408921 0.000000 43.755277
LeftHandThumb1 -26.253704 0.000000 33.147579
RightShoulder -6.106335 -18.146203 0.999884
RightArm 14.859944 -20.746757 51.764860
RightForeArm 178.083702 -0.000000 34.344162
RightHand 0.091840 -0.000000 -0.896667
RightHandThumb1 -24.326973 -0.000000 -32.862282
LeftUpLeg -52.450015 31.688191 2.839652
LeftLeg 96.634636 -0.000000 -0.000000
LeftFoot -7.954392 2.738268 -28.659320
LeftToeBase 14.061859 -0.000000 -0.000000
RightUpLeg -10.332327 -15.543147 9.149693
RightLeg 20.069493 -0.000000 -0.000000
RightFoot -19.719725 -10.683339 -2.451278
RightToeBase 2.692321 -0.000000 -0.000000
1880
root -2.923097 36.317186 0.793412 3.597248 24.309774 1.290742
Spine 3.434343 2.549469 1.973649
Head 3.553596 -4.182257 -0.724746
LeftShoulder -1.846534 -13.805185 7.823397
LeftArm 3.369566 -20.931206 -42.552801
LeftForeArm 0.792467 -0.000000 68.797650
LeftHand -16.306622 -0.000000 43.604080
LeftHandThumb1 -26.253704 0.000000 33.147579
RightShoulder -6.121780 -18.127772 0.994241
RightArm 14.826354 -20.704288 51.747568
RightForeArm 178.096831 -0.000000 34.333492
RightHand 0.096144 -0.000000 -0.916857
RightHandThumb1 -24.326973 -0.000000 -32.862282
LeftUpLeg -52.367458 31.629371 2.881774
LeftLeg 96.764044 -0.000000 -0.000000
LeftFoot -8.080575 2.419400 -28.585010
LeftToeBase 14.081226 -0.000000 -0.000000
RightUpLeg -10.358122 -15.529357 9.116023
RightLeg 20.106780 -0.000000 -0.000000
RightFoot -19.719702 -10.712805 -2.492982
RightToeBase 2.675509 -0.000000 -0.000000
